<svg xmlns="http://www.w3.org/2000/svg" xmlns:xlink="http://www.w3.org/1999/xlink" version="1.1" x="0px" y="0px" viewBox="0 0 100 125" enable-background="new 0 0 100 100" xml:space="preserve"><path d="M40.713,33.832c-9.491,0-17.213,7.723-17.213,17.215c0,9.492,7.722,17.215,17.213,17.215  c9.491,0,17.213-7.723,17.213-17.215C57.926,41.555,50.204,33.832,40.713,33.832z M40.713,63.262  c-6.734,0-12.213-5.479-12.213-12.215c0-6.736,5.479-12.215,12.213-12.215s12.213,5.479,12.213,12.215  C52.926,57.783,47.447,63.262,40.713,63.262z M96.572,73.633L84.807,53.254c-1.063-1.841-2.783-3.171-4.762-3.794v-4.657  c0-14.762-6.252-22.891-17.605-22.891h-3.125l-1.198-2.809c-1.523-3.926-3.823-5.602-7.692-5.602h-19.42  c-3.869,0-6.169,1.676-7.661,5.524l-1.23,2.886h-3.128c-11.18,0-16.848,7.701-16.848,22.891v10.959  c0,15.189,5.668,22.892,16.848,22.892H51.59c1.381,0,2.5-1.118,2.5-2.5c0-1.381-1.119-2.5-2.5-2.5H18.984  c-5.516,0-11.848-2.032-11.848-17.892V44.803c0-15.857,6.332-17.891,11.848-17.891h4.779c1.002,0,1.906-0.598,2.3-1.519l1.91-4.481  c0.935-2.41,1.635-2.41,3.03-2.41h19.418c1.396,0,2.097,0,3.062,2.487l1.879,4.404c0.396,0.921,1.3,1.519,2.302,1.519h4.776  c8.363,0,12.604,6.02,12.604,17.891v4.653c-1.981,0.622-3.706,1.954-4.771,3.798L58.348,73.913c-1.496,2.588-1.496,5.803,0,8.39  c1.493,2.588,4.277,4.195,7.264,4.195h23.934c4.588-0.036,8.32-3.799,8.32-8.389C97.863,76.52,97.417,74.973,96.572,73.633z   M89.504,81.498H65.611c-1.207,0-2.332-0.648-2.938-1.696c-0.604-1.045-0.604-2.342,0.001-3.388l11.929-20.66  c0.604-1.046,1.729-1.695,2.936-1.695s2.333,0.649,2.938,1.695L92.27,76.18c0.021,0.034,0.039,0.067,0.063,0.103  c0.35,0.544,0.531,1.176,0.531,1.827C92.863,79.963,91.355,81.482,89.504,81.498z M77.545,57.086c-1.381,0-2.5,1.119-2.5,2.5v10.609  c0,1.381,1.119,2.5,2.5,2.5s2.5-1.119,2.5-2.5V59.586C80.045,58.205,78.926,57.086,77.545,57.086z M77.545,74.078  c-1.381,0-2.5,1.119-2.5,2.5v0.461c0,1.381,1.119,2.5,2.5,2.5s2.5-1.119,2.5-2.5v-0.461C80.045,75.197,78.926,74.078,77.545,74.078z  "/><text x="0" y="115" fill="#000000" font-size="5px" font-weight="bold" font-family="'Helvetica Neue', Helvetica, Arial-Unicode, Arial, Sans-serif">Created by amante de icono</text><text x="0" y="120" fill="#000000" font-size="5px" font-weight="bold" font-family="'Helvetica Neue', Helvetica, Arial-Unicode, Arial, Sans-serif">from the Noun Project</text></svg>